<svg xmlns="http://www.w3.org/2000/svg" xmlns:svg="http://www.w3.org/2000/svg" id="svg6" version="1.1" viewBox="0 0 24 24"><metadata id="metadata10"/><defs id="defs3051"><style id="current-color-scheme" type="text/css">.ColorScheme-Text{color:#000}</style><style id="current-color-scheme-6" type="text/css">.ColorScheme-Text{color:#000}</style><style id="current-color-scheme-5" type="text/css">.ColorScheme-Text{color:#000}</style></defs><path id="path3818" d="M 1.2938824,1.5814118 V 22.706117 H 22.562353 L 21.676166,21.82592 H 2.1800687 V 10.383372 H 6.6110002 L 9.2695589,7.7427843 H 21.676166 V 21.82592 l 0.886187,0.880197 V 4.2219999 H 13.70049 L 11.041931,1.5814118 Z" class="ColorScheme-Text" style="color:#000;fill:#b4b4b4;fill-opacity:1;stroke:none;stroke-width:.8831861"/><path id="path4683" d="m 9.6449416,4.4988231 c -3.324005,0 -6,2.675995 -6,5.9999999 0,3.324005 2.675995,6 6,6 1.4812054,0 2.8305844,-0.534682 3.8750004,-1.417969 l 5.417969,5.417969 0.707031,-0.707031 -5.417969,-5.417969 c 0.883287,-1.044416 1.417969,-2.393795 1.417969,-3.875 0,-3.3240049 -2.675995,-5.9999999 -6.0000004,-5.9999999 z m 0,1 c 2.7700054,0 5.0000004,2.229995 5.0000004,4.9999999 0,2.770005 -2.229995,5 -5.0000004,5 -2.770005,0 -5,-2.229995 -5,-5 0,-2.7700049 2.229995,-4.9999999 5,-4.9999999 z" class="ColorScheme-Text" style="color:#000;fill:currentColor;fill-opacity:1;stroke:none"/></svg>