<svg xmlns="http://www.w3.org/2000/svg" xmlns:svg="http://www.w3.org/2000/svg" id="svg41" width="32" height="32" version="1.1"><metadata id="metadata45"/><g id="g39" transform="translate(-384.57-515.8)"><g id="g37" transform="matrix(1.6690862,0,0,1.6380077,-267.68249,-342.34846)" style="fill:#444"><path id="path33" d="m 403.63437,531.65605 c 0.0229,-0.17462 0.0398,-0.35155 0.0398,-0.53193 0,-0.18036 -0.0169,-0.35728 -0.0398,-0.53191 l 1.20591,-0.90187 c 0.1086,-0.0816 0.13983,-0.22863 0.0687,-0.34927 l -1.1444,-1.88874 c -0.0712,-0.1171 -0.22068,-0.16665 -0.34853,-0.1171 l -1.42539,0.54802 c -0.29423,-0.21485 -0.61862,-0.39751 -0.96712,-0.53653 l -0.21466,-1.44528 c -0.0254,-0.12861 -0.14356,-0.22863 -0.2858,-0.22863 h -2.28882 c -0.14356,0 -0.26048,0.1011 -0.2834,0.22863 l -0.21465,1.44528 c -0.34851,0.13895 -0.6729,0.31939 -0.96713,0.53653 l -1.42539,-0.54802 c -0.12896,-0.046 -0.27736,0 -0.34852,0.1171 l -1.1444,1.88874 c -0.0712,0.1171 -0.0398,0.26424 0.0687,0.34927 l 1.20591,0.90187 c -0.0229,0.17463 -0.0398,0.35155 -0.0398,0.53191 0,0.18038 0.0169,0.35731 0.0398,0.53193 l -1.20591,0.90188 c -0.1086,0.0816 -0.13982,0.22861 -0.0687,0.34925 l 1.1444,1.88875 c 0.0712,0.1171 0.22068,0.16664 0.34852,0.1171 l 1.42539,-0.54801 c 0.29423,0.21484 0.61862,0.39751 0.96713,0.53651 l 0.21465,1.4453 c 0.0229,0.12861 0.13983,0.22862 0.2834,0.22862 h 2.28882 c 0.14355,0 0.26048,-0.1011 0.28338,-0.22862 l 0.21465,-1.4453 c 0.34851,-0.13894 0.67291,-0.31937 0.96715,-0.53651 l 1.4254,0.54801 c 0.1291,0.046 0.27735,0 0.34851,-0.1171 l 1.1444,-1.88875 c 0.0712,-0.11727 0.0398,-0.26425 -0.0686,-0.34925 z m -4.25205,1.37636 c -1.10702,0 -2.00302,-0.85361 -2.00302,-1.90829 0,-1.05465 0.896,-1.90827 2.00302,-1.90827 1.10704,0 2.00303,0.85362 2.00303,1.90827 0,1.05468 -0.89599,1.90829 -2.00303,1.90829" style="stroke-width:1.17704725"/><path id="path35" d="m 405.81389,539.78215 c 0.0651,-0.0931 0.12914,-0.18937 0.1842,-0.29277 0.0551,-0.10339 0.10011,-0.20986 0.14114,-0.31631 l 0.92197,-0.15663 c 0.083,-0.0143 0.14515,-0.0891 0.14315,-0.17915 l -0.033,-1.42291 c -0.003,-0.088 -0.0671,-0.16073 -0.15016,-0.17096 l -0.92796,-0.11056 c -0.0911,-0.21088 -0.20822,-0.41152 -0.35138,-0.59578 l 0.32735,-0.89163 c 0.025,-0.0808 -0.006,-0.17403 -0.0831,-0.216 l -1.22128,-0.68178 c -0.0761,-0.043 -0.17018,-0.0195 -0.22123,0.047 l -0.55558,0.76367 c -0.22824,-0.0246 -0.45648,-0.0174 -0.67971,0.0194 l -0.59263,-0.73806 c -0.0551,-0.0645 -0.14815,-0.0829 -0.22222,-0.0368 l -1.18825,0.74114 c -0.0741,0.0461 -0.1021,0.13923 -0.0701,0.2201 l 0.36839,0.87627 c -0.0651,0.0931 -0.12914,0.18938 -0.1842,0.29277 -0.0551,0.10339 -0.1001,0.20986 -0.14114,0.31632 l -0.91997,0.15765 c -0.083,0.0143 -0.14514,0.0891 -0.14315,0.17915 l 0.033,1.42292 c 0.003,0.088 0.0671,0.16071 0.15014,0.17095 l 0.92798,0.11056 c 0.0911,0.21088 0.20822,0.41152 0.35137,0.59579 l -0.32735,0.89163 c -0.027,0.0799 0.005,0.173 0.0811,0.21496 l 1.22127,0.68178 c 0.0761,0.043 0.17018,0.0194 0.22124,-0.0471 l 0.55558,-0.76367 c 0.22823,0.0246 0.45648,0.0174 0.67971,-0.0194 l 0.59262,0.73808 c 0.0551,0.0644 0.14815,0.0829 0.22223,0.0368 l 1.18824,-0.74116 c 0.0741,-0.0461 0.10211,-0.13921 0.0701,-0.22008 z m -2.68881,-0.47806 c -0.59062,-0.32962 -0.80785,-1.0851 -0.48551,-1.68908 0.32234,-0.60397 1.06112,-0.82611 1.65173,-0.49648 0.59062,0.32962 0.80785,1.08511 0.48551,1.68907 -0.32233,0.60398 -1.06111,0.82612 -1.65173,0.49649" style="stroke-width:1.01230264"/></g></g></svg>